<svg width="26" height="26" viewBox="0 0 26 26" fill="none" xmlns="http://www.w3.org/2000/svg">
<path d="M13 0.25C10.4783 0.25 8.01321 0.997774 5.91648 2.39876C3.81976 3.79975 2.18556 5.79103 1.22054 8.12079C0.255524 10.4505 0.00303191 13.0141 0.494993 15.4874C0.986955 17.9607 2.20127 20.2325 3.98439 22.0156C5.76751 23.7987 8.03935 25.0131 10.5126 25.505C12.9859 25.997 15.5495 25.7445 17.8792 24.7795C20.209 23.8144 22.2003 22.1802 23.6012 20.0835C25.0022 17.9868 25.75 15.5217 25.75 13C25.7434 9.62052 24.398 6.38134 22.0083 3.99169C19.6187 1.60203 16.3795 0.256607 13 0.25ZM13 24.25C10.775 24.25 8.59989 23.5902 6.74984 22.354C4.89979 21.1179 3.45785 19.3609 2.60636 17.3052C1.75488 15.2495 1.53209 12.9875 1.96617 10.8052C2.40025 8.62295 3.47171 6.61839 5.04505 5.04505C6.6184 3.47171 8.62295 2.40025 10.8052 1.96617C12.9875 1.53208 15.2495 1.75487 17.3052 2.60636C19.3609 3.45784 21.1179 4.89978 22.354 6.74984C23.5902 8.59989 24.25 10.775 24.25 13C24.2467 15.9827 23.0604 18.8422 20.9513 20.9513C18.8422 23.0604 15.9827 24.2467 13 24.25ZM18.75 17C18.75 17.1989 18.671 17.3897 18.5303 17.5303C18.3897 17.671 18.1989 17.75 18 17.75H8.00001C7.80109 17.75 7.61033 17.671 7.46968 17.5303C7.32902 17.3897 7.25001 17.1989 7.25001 17C7.25001 16.8011 7.32902 16.6103 7.46968 16.4697C7.61033 16.329 7.80109 16.25 8.00001 16.25H18C18.1989 16.25 18.3897 16.329 18.5303 16.4697C18.671 16.6103 18.75 16.8011 18.75 17ZM7.25001 10.5C7.25001 10.2528 7.32332 10.0111 7.46067 9.80554C7.59802 9.59998 7.79324 9.43976 8.02165 9.34515C8.25006 9.25054 8.50139 9.22579 8.74387 9.27402C8.98635 9.32225 9.20907 9.4413 9.38389 9.61612C9.5587 9.79093 9.67776 10.0137 9.72599 10.2561C9.77422 10.4986 9.74946 10.7499 9.65485 10.9784C9.56025 11.2068 9.40003 11.402 9.19447 11.5393C8.98891 11.6767 8.74723 11.75 8.50001 11.75C8.16849 11.75 7.85054 11.6183 7.61612 11.3839C7.3817 11.1495 7.25001 10.8315 7.25001 10.5ZM18.75 10.5C18.75 10.7472 18.6767 10.9889 18.5393 11.1945C18.402 11.4 18.2068 11.5602 17.9784 11.6548C17.75 11.7495 17.4986 11.7742 17.2561 11.726C17.0137 11.6778 16.7909 11.5587 16.6161 11.3839C16.4413 11.2091 16.3223 10.9863 16.274 10.7439C16.2258 10.5014 16.2505 10.2501 16.3452 10.0216C16.4398 9.79324 16.6 9.59801 16.8055 9.46066C17.0111 9.32331 17.2528 9.25 17.5 9.25C17.8315 9.25 18.1495 9.3817 18.3839 9.61612C18.6183 9.85054 18.75 10.1685 18.75 10.5Z" fill="#333333"/>
</svg>
