<svg width="26" height="26" viewBox="0 0 26 26" fill="none" xmlns="http://www.w3.org/2000/svg">
<path d="M12.75 0.25C10.2777 0.25 7.86099 0.983112 5.80538 2.35663C3.74976 3.73015 2.14761 5.68238 1.20151 7.96646C0.255416 10.2505 0.00787447 12.7639 0.49019 15.1886C0.972505 17.6134 2.16301 19.8407 3.91117 21.5888C5.65933 23.337 7.88661 24.5275 10.3114 25.0098C12.7361 25.4921 15.2495 25.2446 17.5335 24.2985C19.8176 23.3524 21.7699 21.7502 23.1434 19.6946C24.5169 17.639 25.25 15.2223 25.25 12.75C25.2435 9.43678 23.9245 6.26112 21.5817 3.91832C19.2389 1.57552 16.0632 0.256477 12.75 0.25ZM12.75 23.7794C10.5686 23.7794 8.43617 23.1325 6.62239 21.9206C4.80861 20.7087 3.39495 18.9861 2.56016 16.9708C1.72537 14.9554 1.50695 12.7378 1.93252 10.5983C2.35809 8.45877 3.40854 6.49352 4.95103 4.95103C6.49352 3.40854 8.45878 2.35809 10.5983 1.93251C12.7378 1.50694 14.9554 1.72536 16.9708 2.56015C18.9861 3.39494 20.7087 4.80861 21.9206 6.62239C23.1325 8.43616 23.7794 10.5686 23.7794 12.75C23.7762 15.6742 22.6131 18.4777 20.5454 20.5454C18.4777 22.6131 15.6742 23.7762 12.75 23.7794ZM7.11275 10.299C7.11275 10.0566 7.18462 9.8197 7.31928 9.61817C7.45394 9.41664 7.64534 9.25957 7.86926 9.16681C8.09319 9.07406 8.3396 9.04979 8.57732 9.09707C8.81504 9.14436 9.0334 9.26108 9.20479 9.43246C9.37618 9.60385 9.4929 9.82221 9.54018 10.0599C9.58747 10.2977 9.5632 10.5441 9.47044 10.768C9.37769 10.9919 9.22062 11.1833 9.01908 11.318C8.81755 11.4526 8.58062 11.5245 8.33824 11.5245C8.01322 11.5245 7.70151 11.3954 7.47169 11.1656C7.24186 10.9357 7.11275 10.624 7.11275 10.299ZM15.9363 10.299C15.9363 10.0566 16.0082 9.8197 16.1428 9.61817C16.2775 9.41664 16.4689 9.25957 16.6928 9.16681C16.9167 9.07406 17.1631 9.04979 17.4008 9.09707C17.6386 9.14436 17.8569 9.26108 18.0283 9.43246C18.1997 9.60385 18.3164 9.82221 18.3637 10.0599C18.411 10.2977 18.3867 10.5441 18.294 10.768C18.2012 10.9919 18.0441 11.1833 17.8426 11.318C17.6411 11.4526 17.4041 11.5245 17.1618 11.5245C16.8367 11.5245 16.525 11.3954 16.2952 11.1656C16.0654 10.9357 15.9363 10.624 15.9363 10.299ZM18.4853 16.0588C17.9025 17.0637 17.066 17.8978 16.0594 18.4777C15.0529 19.0576 13.9116 19.3628 12.75 19.3628C11.5884 19.3628 10.4471 19.0576 9.44056 18.4777C8.434 17.8978 7.59746 17.0637 7.01471 16.0588C6.96638 15.9751 6.93501 15.8828 6.9224 15.787C6.90979 15.6912 6.91619 15.5938 6.94123 15.5005C6.96627 15.4072 7.00946 15.3197 7.06833 15.2431C7.1272 15.1664 7.20059 15.1022 7.28432 15.0539C7.36756 15.0039 7.46001 14.9712 7.55617 14.9577C7.65233 14.9442 7.75022 14.9502 7.84401 14.9754C7.93779 15.0005 8.02555 15.0443 8.10204 15.1042C8.17853 15.164 8.24219 15.2386 8.28922 15.3235C8.74052 16.1075 9.39048 16.7587 10.1736 17.2116C10.9567 17.6644 11.8454 17.9028 12.75 17.9028C13.6546 17.9028 14.5433 17.6644 15.3264 17.2116C16.1095 16.7587 16.7595 16.1075 17.2108 15.3235C17.2578 15.2386 17.3215 15.164 17.398 15.1042C17.4745 15.0443 17.5622 15.0005 17.656 14.9754C17.7498 14.9502 17.8477 14.9442 17.9438 14.9577C18.04 14.9712 18.1325 15.0039 18.2157 15.0539C18.2994 15.1022 18.3728 15.1664 18.4317 15.2431C18.4905 15.3197 18.5337 15.4072 18.5588 15.5005C18.5838 15.5938 18.5902 15.6912 18.5776 15.787C18.565 15.8828 18.5336 15.9751 18.4853 16.0588Z" fill="#333333"/>
</svg>
