<svg width="30" height="30" viewBox="0 0 30 30" fill="none" xmlns="http://www.w3.org/2000/svg">
<path d="M26.7656 16V27.875C26.7656 28.4262 26.5467 28.9547 26.157 29.3445C25.7672 29.7342 25.2387 29.9531 24.6875 29.9531H2.125C1.57385 29.9531 1.04527 29.7342 0.655544 29.3445C0.26582 28.9547 0.046875 28.4262 0.046875 27.875V5.3125C0.046875 4.76135 0.26582 4.23277 0.655544 3.84304C1.04527 3.45332 1.57385 3.23438 2.125 3.23438H14C14.2362 3.23438 14.4627 3.32821 14.6298 3.49523C14.7968 3.66226 14.8906 3.88879 14.8906 4.125C14.8906 4.36121 14.7968 4.58774 14.6298 4.75477C14.4627 4.92179 14.2362 5.01562 14 5.01562H2.125C2.04626 5.01562 1.97075 5.0469 1.91508 5.10258C1.8594 5.15825 1.82812 5.23376 1.82812 5.3125V27.875C1.82812 27.9537 1.8594 28.0292 1.91508 28.0849C1.97075 28.1406 2.04626 28.1719 2.125 28.1719H24.6875C24.7662 28.1719 24.8417 28.1406 24.8974 28.0849C24.9531 28.0292 24.9844 27.9537 24.9844 27.875V16C24.9844 15.7638 25.0782 15.5373 25.2452 15.3702C25.4123 15.2032 25.6388 15.1094 25.875 15.1094C26.1112 15.1094 26.3377 15.2032 26.5048 15.3702C26.6718 15.5373 26.7656 15.7638 26.7656 16ZM29.1406 5.90625C29.1406 6.90443 28.8446 7.88019 28.2901 8.71014C27.7355 9.5401 26.9473 10.187 26.0251 10.569C25.1029 10.9509 24.0882 11.0509 23.1092 10.8562C22.1302 10.6614 21.2309 10.1807 20.5251 9.47493C19.8193 8.76911 19.3386 7.86984 19.1439 6.89085C18.9491 5.91185 19.0491 4.89709 19.431 3.97489C19.813 3.0527 20.4599 2.26448 21.2899 1.70993C22.1198 1.15537 23.0956 0.859375 24.0938 0.859375C25.4311 0.863291 26.7125 1.39627 27.6581 2.3419C28.6037 3.28752 29.1367 4.56894 29.1406 5.90625ZM27.3594 5.90625C27.3594 5.26037 27.1678 4.629 26.809 4.09197C26.4502 3.55494 25.9402 3.13637 25.3435 2.88921C24.7467 2.64204 24.0901 2.57737 23.4567 2.70337C22.8232 2.82938 22.2413 3.1404 21.7846 3.5971C21.3279 4.05381 21.0169 4.63569 20.8909 5.26916C20.7649 5.90263 20.8295 6.55924 21.0767 7.15595C21.3239 7.75267 21.7424 8.26269 22.2795 8.62152C22.8165 8.98035 23.4479 9.17188 24.0938 9.17188C24.9586 9.16797 25.787 8.82266 26.3986 8.21108C27.0102 7.5995 27.3555 6.77114 27.3594 5.90625Z" fill="#333333"/>
</svg>
