<svg width="32" height="32" viewBox="0 0 32 32" fill="none" xmlns="http://www.w3.org/2000/svg">
<path fill-rule="evenodd" clip-rule="evenodd" d="M8.72249 24.4816C14.1414 23.6899 17.8726 23.758 23.2987 24.5093C23.6916 24.5663 24.0507 24.7635 24.3096 25.0646C24.5684 25.3656 24.7096 25.7502 24.707 26.1473C24.707 26.5273 24.5764 26.8962 24.3405 27.1843C23.9293 27.6868 23.5081 28.1809 23.077 28.6663H25.1678C25.2992 28.5096 25.4314 28.3497 25.5652 28.1874C26.0348 27.6115 26.291 26.8911 26.2904 26.1481C26.2904 24.5449 25.1203 23.1635 23.5156 22.9418C17.9612 22.1731 14.0789 22.0995 8.4937 22.9157C6.87236 23.1524 5.70703 24.5552 5.70703 26.1694C5.70703 26.8859 5.94057 27.5944 6.38311 28.1684C6.51374 28.3378 6.64278 28.504 6.77103 28.6671H8.81116C8.41012 28.187 8.01895 27.6987 7.63791 27.2026C7.41146 26.9055 7.2893 26.5421 7.29036 26.1686C7.29036 25.316 7.90311 24.6011 8.72249 24.4816ZM15.9987 16.7913C16.6225 16.7913 17.2401 16.6685 17.8164 16.4298C18.3927 16.1911 18.9164 15.8412 19.3575 15.4001C19.7985 14.959 20.1484 14.4354 20.3871 13.8591C20.6258 13.2828 20.7487 12.6651 20.7487 12.0413C20.7487 11.4176 20.6258 10.7999 20.3871 10.2236C20.1484 9.6473 19.7985 9.12366 19.3575 8.68258C18.9164 8.24151 18.3927 7.89162 17.8164 7.65291C17.2401 7.4142 16.6225 7.29134 15.9987 7.29134C14.7389 7.29134 13.5307 7.79179 12.6399 8.68258C11.7491 9.57338 11.2487 10.7816 11.2487 12.0413C11.2487 13.3011 11.7491 14.5093 12.6399 15.4001C13.5307 16.2909 14.7389 16.7913 15.9987 16.7913ZM15.9987 18.3747C17.6784 18.3747 19.2893 17.7074 20.477 16.5197C21.6648 15.332 22.332 13.721 22.332 12.0413C22.332 10.3616 21.6648 8.75073 20.477 7.563C19.2893 6.37527 17.6784 5.70801 15.9987 5.70801C14.319 5.70801 12.7081 6.37527 11.5204 7.563C10.3326 8.75073 9.66536 10.3616 9.66536 12.0413C9.66536 13.721 10.3326 15.332 11.5204 16.5197C12.7081 17.7074 14.319 18.3747 15.9987 18.3747Z" fill="#333333"/>
<path fill-rule="evenodd" clip-rule="evenodd" d="M15.9993 30.2493C23.8693 30.2493 30.2493 23.8693 30.2493 15.9993C30.2493 8.12939 23.8693 1.74935 15.9993 1.74935C8.12939 1.74935 1.74935 8.12939 1.74935 15.9993C1.74935 23.8693 8.12939 30.2493 15.9993 30.2493ZM15.9993 31.8327C24.7441 31.8327 31.8327 24.7441 31.8327 15.9993C31.8327 7.2546 24.7441 0.166016 15.9993 0.166016C7.2546 0.166016 0.166016 7.2546 0.166016 15.9993C0.166016 24.7441 7.2546 31.8327 15.9993 31.8327Z" fill="#333333"/>
</svg>
