<svg width="251" height="35" viewBox="0 0 251 35" fill="none" xmlns="http://www.w3.org/2000/svg">
<path d="M18.294 8.14347C18.3281 6.95881 17.9659 6.05114 17.2074 5.42045C16.4574 4.78977 15.3793 4.47443 13.973 4.47443C12.9844 4.47443 12.1108 4.62358 11.3523 4.92188C10.6023 5.21165 9.99716 5.61648 9.53693 6.13636C9.0767 6.64773 8.79119 7.23153 8.6804 7.88778C8.58665 8.42472 8.63352 8.89347 8.82102 9.29403C9.00852 9.6946 9.29403 10.0355 9.67756 10.3168C10.0696 10.598 10.5128 10.8324 11.0071 11.0199C11.5099 11.2074 12.0213 11.3651 12.5412 11.4929L14.8935 12.1065C15.831 12.3366 16.7259 12.6477 17.5781 13.0398C18.4304 13.4233 19.1676 13.9176 19.7898 14.5227C20.4205 15.1193 20.8807 15.8395 21.1705 16.6832C21.4602 17.527 21.5071 18.5156 21.3111 19.6491C21.0554 21.1832 20.4375 22.5341 19.4574 23.7017C18.4858 24.8608 17.2074 25.7685 15.6222 26.4247C14.0455 27.0724 12.2088 27.3963 10.1122 27.3963C8.08381 27.3963 6.37074 27.081 4.97301 26.4503C3.57528 25.8111 2.55256 24.8864 1.90483 23.6761C1.26563 22.4659 1.06108 20.9957 1.29119 19.2656H5.95739C5.86364 20.1776 6.01278 20.9361 6.40483 21.5412C6.8054 22.1463 7.38068 22.598 8.13068 22.8963C8.88068 23.1946 9.75 23.3438 10.7386 23.3438C11.7699 23.3438 12.7031 23.1903 13.5384 22.8835C14.3736 22.5682 15.0554 22.1335 15.5838 21.5795C16.1207 21.017 16.4489 20.3608 16.5682 19.6108C16.6875 18.9375 16.5895 18.375 16.2741 17.9233C15.9588 17.4716 15.4688 17.0966 14.804 16.7983C14.1477 16.4915 13.3636 16.2187 12.4517 15.9801L9.61364 15.2131C7.55966 14.6506 6 13.8068 4.93466 12.6818C3.87784 11.5568 3.50284 10.0568 3.80966 8.18182C4.06534 6.63068 4.70881 5.27983 5.74006 4.12926C6.77131 2.97017 8.0625 2.07102 9.61364 1.43182C11.1648 0.78409 12.8608 0.460226 14.7017 0.460226C16.5597 0.460226 18.1321 0.78409 19.419 1.43182C20.7145 2.07954 21.6605 2.98295 22.2571 4.14205C22.8622 5.29261 23.0625 6.62642 22.858 8.14347H18.294ZM22.9059 34.3636L27.4315 7.36364H31.9826L31.4585 10.6108H31.7269C32.0337 10.1335 32.4471 9.62642 32.967 9.08949C33.4954 8.54403 34.1644 8.07954 34.9741 7.69602C35.7837 7.30398 36.7681 7.10795 37.9272 7.10795C39.4357 7.10795 40.7354 7.49574 41.8264 8.27131C42.9173 9.03835 43.6971 10.1761 44.1658 11.6847C44.6431 13.1847 44.7028 15.0256 44.3448 17.2074C43.9869 19.3636 43.3264 21.196 42.3633 22.7045C41.4002 24.2131 40.2454 25.3636 38.8988 26.1562C37.5522 26.9489 36.1076 27.3452 34.565 27.3452C33.44 27.3452 32.5323 27.1577 31.842 26.7827C31.1602 26.4077 30.6445 25.956 30.2951 25.4276C29.9457 24.8906 29.6857 24.3835 29.5153 23.9062H29.3107L27.5721 34.3636H22.9059ZM30.3335 17.1818C30.1289 18.4517 30.1246 19.5639 30.3207 20.5185C30.5252 21.473 30.93 22.2187 31.5352 22.7557C32.1403 23.2841 32.9329 23.5483 33.913 23.5483C34.9357 23.5483 35.8306 23.2756 36.5977 22.7301C37.3732 22.1761 38.0167 21.4219 38.5281 20.4673C39.0479 19.5043 39.4144 18.4091 39.6275 17.1818C39.8235 15.9631 39.8235 14.8807 39.6275 13.9347C39.4315 12.9886 39.0352 12.2472 38.4386 11.7102C37.842 11.1733 37.0323 10.9048 36.0096 10.9048C35.0124 10.9048 34.1218 11.1648 33.3377 11.6847C32.5621 12.2045 31.9187 12.9332 31.4073 13.8707C30.896 14.8082 30.538 15.9119 30.3335 17.1818ZM52.255 27.3963C51.0107 27.3963 49.9283 27.1747 49.0078 26.7315C48.0874 26.2798 47.4098 25.6151 46.9751 24.7372C46.549 23.8594 46.4425 22.777 46.6555 21.4901C46.843 20.3821 47.201 19.4659 47.7294 18.7415C48.2663 18.017 48.9226 17.4375 49.6982 17.0028C50.4822 16.5597 51.3345 16.2273 52.255 16.0057C53.1839 15.7841 54.13 15.6222 55.093 15.5199C56.2692 15.4006 57.2195 15.2898 57.9439 15.1875C58.6768 15.0852 59.2266 14.9318 59.593 14.7273C59.9595 14.5142 60.1811 14.1903 60.2578 13.7557V13.679C60.4112 12.7159 60.2578 11.9702 59.7976 11.4418C59.3374 10.9134 58.5703 10.6491 57.4964 10.6491C56.3714 10.6491 55.4254 10.8963 54.6584 11.3906C53.8913 11.8849 53.3331 12.4687 52.9837 13.142L48.7905 12.5284C49.3189 11.3352 50.0433 10.3381 50.9638 9.53693C51.8842 8.72727 52.9453 8.12216 54.147 7.72159C55.3572 7.3125 56.6484 7.10795 58.0206 7.10795C58.9581 7.10795 59.8743 7.21875 60.7692 7.44034C61.6726 7.66193 62.4695 8.02841 63.1598 8.53977C63.8587 9.04261 64.37 9.72869 64.6939 10.598C65.0263 11.4673 65.0817 12.554 64.8601 13.858L62.674 27H58.2251L58.6854 24.3026H58.532C58.1655 24.848 57.6882 25.3594 57.1001 25.8366C56.5121 26.3054 55.8132 26.6847 55.0036 26.9744C54.1939 27.2557 53.2777 27.3963 52.255 27.3963ZM54.0064 23.9957C54.9354 23.9957 55.7706 23.8125 56.5121 23.446C57.2536 23.071 57.8629 22.5767 58.3402 21.9631C58.8175 21.3494 59.1158 20.6804 59.2351 19.956L59.6186 17.642C59.4482 17.7614 59.1839 17.8722 58.826 17.9744C58.468 18.0767 58.0675 18.1662 57.6243 18.2429C57.1896 18.3196 56.7592 18.3878 56.3331 18.4474C55.907 18.5071 55.5405 18.5582 55.2337 18.6009C54.5263 18.6946 53.8786 18.848 53.2905 19.0611C52.7109 19.2741 52.2294 19.5724 51.8459 19.956C51.4709 20.331 51.2365 20.8168 51.1428 21.4134C51.0064 22.2571 51.2067 22.9006 51.7436 23.3438C52.2805 23.7784 53.0348 23.9957 54.0064 23.9957ZM75.8416 27.3835C73.8814 27.3835 72.2706 26.9531 71.0092 26.0923C69.7479 25.2315 68.8658 24.0426 68.3629 22.5256C67.8686 21 67.7876 19.2443 68.12 17.2585C68.4439 15.2642 69.1129 13.5043 70.1271 11.9787C71.1499 10.4446 72.4368 9.25142 73.9879 8.39915C75.5391 7.53835 77.2734 7.10795 79.1911 7.10795C80.7848 7.10795 82.1442 7.40199 83.2692 7.99006C84.4027 8.5696 85.2464 9.39205 85.8004 10.4574C86.3629 11.5142 86.5803 12.75 86.4524 14.1648H82.0163C81.9993 13.2187 81.7053 12.4304 81.1342 11.7997C80.5632 11.1605 79.728 10.8409 78.6286 10.8409C77.674 10.8409 76.7962 11.0966 75.995 11.608C75.1939 12.1108 74.5163 12.8352 73.9624 13.7812C73.4084 14.7273 73.0249 15.8608 72.8118 17.1818C72.5902 18.5199 72.5945 19.6705 72.8246 20.6335C73.0632 21.5881 73.4936 22.3253 74.1158 22.8452C74.7464 23.3565 75.5433 23.6122 76.5064 23.6122C77.1882 23.6122 77.8232 23.4844 78.4112 23.2287C78.9993 22.9645 79.5149 22.5852 79.9581 22.0909C80.4098 21.5966 80.7635 20.9957 81.0192 20.2884H85.4425C85.093 21.6776 84.4709 22.9091 83.576 23.983C82.6896 25.0483 81.5902 25.8835 80.2777 26.4886C78.9652 27.0852 77.4865 27.3835 75.8416 27.3835ZM96.7468 27.3835C94.7781 27.3835 93.1502 26.9744 91.8633 26.1562C90.5763 25.3295 89.6729 24.1619 89.1531 22.6534C88.6417 21.1364 88.5565 19.3509 88.8974 17.2969C89.2298 15.277 89.9073 13.5043 90.93 11.9787C91.9528 10.4446 93.2312 9.25142 94.7653 8.39915C96.3079 7.53835 98.0124 7.10795 99.8789 7.10795C101.089 7.10795 102.201 7.30398 103.216 7.69602C104.23 8.07954 105.086 8.67614 105.785 9.4858C106.484 10.2955 106.966 11.3267 107.23 12.5795C107.494 13.8239 107.481 15.3068 107.191 17.0284L106.974 18.4474H90.8661L91.3647 15.3281H103.024C103.177 14.4418 103.126 13.6534 102.87 12.9631C102.615 12.2642 102.189 11.7145 101.592 11.3139C100.995 10.9134 100.25 10.7131 99.3548 10.7131C98.4428 10.7131 97.5906 10.9474 96.7979 11.4162C96.0138 11.8764 95.3533 12.473 94.8164 13.206C94.2795 13.9389 93.9386 14.7102 93.7937 15.5199L93.2695 18.5114C93.082 19.7386 93.1246 20.7401 93.3974 21.5156C93.6701 22.2912 94.1474 22.8622 94.8292 23.2287C95.511 23.5952 96.3718 23.7784 97.4116 23.7784C98.0934 23.7784 98.7241 23.6847 99.3036 23.4972C99.8832 23.3097 100.399 23.0284 100.85 22.6534C101.311 22.2699 101.694 21.8011 102.001 21.2472L106.233 21.733C105.764 22.875 105.078 23.8722 104.174 24.7244C103.271 25.5682 102.189 26.2244 100.927 26.6932C99.6744 27.1534 98.2809 27.3835 96.7468 27.3835Z" fill="#EE6F57"/>
<path d="M127.614 27H118.614L122.961 0.818181H131.884C134.483 0.818181 136.64 1.35511 138.353 2.42898C140.066 3.50284 141.267 5.03693 141.958 7.03125C142.657 9.01705 142.776 11.3864 142.316 14.1392C141.873 16.8324 140.999 19.1378 139.695 21.0554C138.391 22.973 136.716 24.4432 134.671 25.4659C132.625 26.4886 130.273 27 127.614 27ZM124.034 22.8963H127.857C129.672 22.8963 131.253 22.5511 132.6 21.8608C133.955 21.1619 135.059 20.1264 135.911 18.7543C136.772 17.3736 137.368 15.6605 137.701 13.6151C138.033 11.6548 138.012 10.0355 137.637 8.7571C137.262 7.47017 136.533 6.51136 135.451 5.88068C134.377 5.24148 132.953 4.92188 131.181 4.92188H127.013L124.034 22.8963ZM144.495 27L147.768 7.36364H152.255L151.706 10.6364H151.91C152.447 9.50284 153.206 8.62926 154.186 8.01562C155.174 7.39347 156.231 7.08239 157.356 7.08239C157.62 7.08239 157.906 7.09517 158.213 7.12074C158.52 7.13778 158.784 7.16761 159.005 7.21023L158.289 11.4673C158.093 11.3991 157.787 11.3395 157.369 11.2884C156.96 11.2287 156.555 11.1989 156.154 11.1989C155.311 11.1989 154.527 11.3821 153.802 11.7486C153.086 12.1065 152.481 12.6051 151.987 13.2443C151.493 13.8835 151.173 14.6207 151.028 15.456L149.123 27H144.495ZM166.637 27.3835C164.669 27.3835 163.041 26.9744 161.754 26.1562C160.467 25.3295 159.564 24.1619 159.044 22.6534C158.532 21.1364 158.447 19.3509 158.788 17.2969C159.12 15.277 159.798 13.5043 160.821 11.9787C161.843 10.4446 163.122 9.25142 164.656 8.39915C166.199 7.53835 167.903 7.10795 169.77 7.10795C170.98 7.10795 172.092 7.30398 173.106 7.69602C174.12 8.07954 174.977 8.67614 175.676 9.4858C176.375 10.2955 176.856 11.3267 177.12 12.5795C177.385 13.8239 177.372 15.3068 177.082 17.0284L176.865 18.4474H160.757L161.255 15.3281H172.914C173.068 14.4418 173.017 13.6534 172.761 12.9631C172.505 12.2642 172.079 11.7145 171.483 11.3139C170.886 10.9134 170.14 10.7131 169.245 10.7131C168.333 10.7131 167.481 10.9474 166.689 11.4162C165.904 11.8764 165.244 12.473 164.707 13.206C164.17 13.9389 163.829 14.7102 163.684 15.5199L163.16 18.5114C162.973 19.7386 163.015 20.7401 163.288 21.5156C163.561 22.2912 164.038 22.8622 164.72 23.2287C165.402 23.5952 166.262 23.7784 167.302 23.7784C167.984 23.7784 168.615 23.6847 169.194 23.4972C169.774 23.3097 170.289 23.0284 170.741 22.6534C171.201 22.2699 171.585 21.8011 171.892 21.2472L176.123 21.733C175.654 22.875 174.968 23.8722 174.065 24.7244C173.162 25.5682 172.079 26.2244 170.818 26.6932C169.565 27.1534 168.172 27.3835 166.637 27.3835ZM184.97 27.3963C183.725 27.3963 182.643 27.1747 181.723 26.7315C180.802 26.2798 180.125 25.6151 179.69 24.7372C179.264 23.8594 179.157 22.777 179.37 21.4901C179.558 20.3821 179.916 19.4659 180.444 18.7415C180.981 18.017 181.637 17.4375 182.413 17.0028C183.197 16.5597 184.049 16.2273 184.97 16.0057C185.899 15.7841 186.845 15.6222 187.808 15.5199C188.984 15.4006 189.934 15.2898 190.659 15.1875C191.392 15.0852 191.941 14.9318 192.308 14.7273C192.674 14.5142 192.896 14.1903 192.973 13.7557V13.679C193.126 12.7159 192.973 11.9702 192.512 11.4418C192.052 10.9134 191.285 10.6491 190.211 10.6491C189.086 10.6491 188.14 10.8963 187.373 11.3906C186.606 11.8849 186.048 12.4687 185.699 13.142L181.505 12.5284C182.034 11.3352 182.758 10.3381 183.679 9.53693C184.599 8.72727 185.66 8.12216 186.862 7.72159C188.072 7.3125 189.363 7.10795 190.735 7.10795C191.673 7.10795 192.589 7.21875 193.484 7.44034C194.387 7.66193 195.184 8.02841 195.875 8.53977C196.574 9.04261 197.085 9.72869 197.409 10.598C197.741 11.4673 197.797 12.554 197.575 13.858L195.389 27H190.94L191.4 24.3026H191.247C190.88 24.848 190.403 25.3594 189.815 25.8366C189.227 26.3054 188.528 26.6847 187.718 26.9744C186.909 27.2557 185.993 27.3963 184.97 27.3963ZM186.721 23.9957C187.65 23.9957 188.485 23.8125 189.227 23.446C189.968 23.071 190.578 22.5767 191.055 21.9631C191.532 21.3494 191.831 20.6804 191.95 19.956L192.333 17.642C192.163 17.7614 191.899 17.8722 191.541 17.9744C191.183 18.0767 190.782 18.1662 190.339 18.2429C189.904 18.3196 189.474 18.3878 189.048 18.4474C188.622 18.5071 188.255 18.5582 187.949 18.6009C187.241 18.6946 186.593 18.848 186.005 19.0611C185.426 19.2741 184.944 19.5724 184.561 19.956C184.186 20.331 183.951 20.8168 183.858 21.4134C183.721 22.2571 183.922 22.9006 184.458 23.3438C184.995 23.7784 185.75 23.9957 186.721 23.9957ZM200.055 27L203.328 7.36364H207.764L207.201 10.7003H207.444C208.041 9.57528 208.863 8.69744 209.912 8.06676C210.96 7.42756 212.14 7.10795 213.453 7.10795C214.774 7.10795 215.839 7.43182 216.649 8.07955C217.467 8.71875 217.97 9.59233 218.157 10.7003H218.362C218.975 9.60085 219.853 8.72727 220.995 8.07955C222.146 7.43182 223.437 7.10795 224.869 7.10795C226.659 7.10795 228.031 7.67898 228.985 8.82102C229.94 9.96307 230.234 11.6293 229.868 13.8196L227.669 27H223.041L225.137 14.5355C225.325 13.3168 225.137 12.4261 224.575 11.8636C224.021 11.2926 223.275 11.0071 222.338 11.0071C221.221 11.0071 220.292 11.3523 219.551 12.0426C218.818 12.733 218.366 13.6364 218.196 14.7528L216.137 27H211.599L213.721 14.3438C213.875 13.3295 213.696 12.5199 213.184 11.9148C212.681 11.3097 211.94 11.0071 210.96 11.0071C210.295 11.0071 209.66 11.1776 209.055 11.5185C208.45 11.8594 207.934 12.3366 207.508 12.9503C207.091 13.5554 206.818 14.2585 206.69 15.0597L204.696 27H200.055ZM250.261 12.554L246.004 13.0142C245.962 12.5795 245.83 12.1747 245.608 11.7997C245.386 11.4247 245.054 11.1264 244.611 10.9048C244.176 10.6747 243.614 10.5597 242.923 10.5597C241.918 10.5597 241.036 10.7855 240.277 11.2372C239.518 11.6889 239.088 12.2685 238.986 12.9759C238.892 13.5043 239.02 13.9347 239.369 14.267C239.719 14.5994 240.366 14.8807 241.312 15.1108L244.56 15.8267C246.349 16.2273 247.636 16.875 248.42 17.7699C249.213 18.6648 249.49 19.8366 249.251 21.2855C249.047 22.4957 248.518 23.5611 247.666 24.4815C246.814 25.3935 245.723 26.1051 244.393 26.6165C243.072 27.1278 241.607 27.3835 239.996 27.3835C237.55 27.3835 235.666 26.8764 234.345 25.8622C233.033 24.8395 232.381 23.4332 232.389 21.6435L236.94 21.2088C236.991 22.0952 237.303 22.7642 237.874 23.2159C238.445 23.6591 239.237 23.8849 240.251 23.8935C241.393 23.902 242.357 23.6634 243.141 23.1776C243.933 22.6832 244.381 22.0824 244.483 21.375C244.568 20.8466 244.436 20.4162 244.087 20.0838C243.746 19.7514 243.136 19.4872 242.259 19.2912L239.037 18.5881C237.213 18.1875 235.913 17.5099 235.138 16.5554C234.371 15.5923 234.111 14.3778 234.358 12.9119C234.563 11.7187 235.061 10.6918 235.854 9.83097C236.655 8.96165 237.682 8.29261 238.935 7.82386C240.188 7.34659 241.589 7.10795 243.141 7.10795C245.476 7.10795 247.236 7.59801 248.42 8.57812C249.605 9.55824 250.219 10.8835 250.261 12.554Z" fill="#145374"/>
</svg>
